<svg width="40" height="45" viewBox="0 0 40 45" fill="none" xmlns="http://www.w3.org/2000/svg">
<path d="M39.7444 0.317171C39.5618 0.11464 39.2993 0 39.0254 0H0.974643C0.700733 0 0.438235 0.11464 0.255628 0.317171C0.0692164 0.519701 -0.022087 0.791016 0.00454342 1.06615L3.43223 39.6348C3.46647 40.0399 3.74799 40.3762 4.13603 40.4908L19.7299 44.9618C19.8136 44.9885 19.9049 45 19.9962 45C20.0875 45 20.175 44.9885 20.2625 44.9618L35.8678 40.4908C36.2558 40.3762 36.5335 40.0399 36.5716 39.6348L39.9955 1.06615C40.0221 0.791016 39.9308 0.519701 39.7444 0.317171ZM31.5385 13.6154H13.2169L13.6544 18.5946H31.0972L29.7885 33.3105L19.9924 36.2835L19.8973 36.253L10.2153 33.3067L9.68651 27.3111H14.4305L14.6359 29.6382L20.0495 30.777L25.3641 29.6382L25.9309 23.3407H9.33271L8.04305 8.85785H31.9608L31.5385 13.6154Z" fill="white"/>
</svg>
