<svg width="40" height="45" viewBox="0 0 40 45" fill="none" xmlns="http://www.w3.org/2000/svg">
<path d="M39.7449 0.317935C39.5598 0.115435 39.2998 0 39.0261 0H0.973898C0.700232 0 0.440201 0.115435 0.25516 0.317935C0.0701186 0.520435 -0.0204541 0.792391 0.00389344 1.06533L3.43202 39.6352C3.46806 40.0383 3.74757 40.3777 4.13518 40.4892L19.7273 44.9628C19.814 44.9873 19.9046 45 19.9942 45C20.0838 45 20.1743 44.9873 20.261 44.9628L35.8668 40.4892C36.2544 40.3777 36.5339 40.0383 36.57 39.6352L39.9961 1.06533C40.0205 0.792391 39.9289 0.520435 39.7449 0.317935ZM7.33931 26.417L14.1566 28.3167V8.80435H18.0522V34.2391L7.33931 31.2545V26.417ZM32.7133 19.5652L31.6868 31.5489L21.9478 34.2391V29.7382L28.5216 27.9235L28.7651 24.255L21.9478 25.4348V8.80435H33.6346L33.2986 12.7174H25.8434V20.5435L32.7133 19.5652Z" fill="white"/>
</svg>
