<svg version="1.1" id="Layer_1" xmlns:x="ns_extend;" xmlns:i="ns_ai;" xmlns:graph="ns_graphs;" xmlns="http://www.w3.org/2000/svg" xmlns:xlink="http://www.w3.org/1999/xlink" x="0px" y="0px" viewBox="0 0 100 108.8" style="enable-background:new 0 0 100 108.8;" xml:space="preserve">
 <style type="text/css">
  .st0{fill:#005F9E;}
 </style>
 <metadata>
  <sfw xmlns="ns_sfw;">
   <slices>
   </slices>
   <sliceSourceBounds bottomLeftOrigin="true" height="108.8" width="100" x="0.1" y="0.1">
   </sliceSourceBounds>
  </sfw>
 </metadata>
 <g>
  <path class="st0" d="M100,23.7L64.6,3.3C64.6,3.3,59,0,50,0c-9.3,0-14.7,3.4-14.7,3.4L2.5,22.1l49.9,28.7v58L85.3,90
		c0,0,5.9-3.2,10.3-10.9c3.9-6.8,4.4-13.3,4.4-13.3L100,23.7L100,23.7z M46.6,33.1c0,0,7.3-1.3,13.5,2.2C66.3,38.9,70,41,70,41
		s0,5,0,12.4c0,6-5,12.1-5,12.1l0-21.8L46.6,33.1z M75.6,81l-10.7,6.1v-5.8l8.3-4.8c7.9-5.7,9.2-14.1,9.2-17l0-25.9L59.8,20.7
		c0,0-3.5-2.3-9.7-2.3s-9.6,2.1-9.6,2.1l-8,4.6l-5-2.9l11-6.3c0,0,4.3-2.4,11.5-2.4c6.6,0,11.8,2.6,11.8,2.6l25.6,14.8l0,28.2
		C87.6,63.4,85.6,74,75.6,81z">
  </path>
  <path class="st0" d="M0,40.9L35,61l0,6L15.1,55.6L2.5,62.7l32.4,18.7l0,5.8l-34.7-20c0.1,2.3,2.2,9.6,6.3,15.1
		c4.1,5.7,8.8,8.1,8.8,8.1l32.1,18.5V53.7L0,26.5L0,40.9z">
  </path>
 </g>
</svg>